name D:\school\WTK\thesis\model\3dpredictsim\Results\batch_windlass\Pog_s1_tmt_bCst_d05_k800_WL20_ig24_pas.mot
datacolumns 128
datarows 4
range 1.08028686 1.11269546
endheader
time	pelvis_tilt	pelvis_list	pelvis_rotation	pelvis_tx	pelvis_ty	pelvis_tz	hip_flexion_l	hip_adduction_l	hip_rotation_l	hip_flexion_r	hip_adduction_r	hip_rotation_r	knee_angle_l	knee_angle_r	ankle_angle_l	ankle_angle_r	subtalar_angle_l	subtalar_angle_r	tmt_angle_l	tmt_angle_r	mtp_angle_l	mtp_angle_r	lumbar_extension	lumbar_bending	lumbar_rotation	arm_flex_l	arm_add_l	arm_rot_l	arm_flex_r	arm_add_r	arm_rot_r	elbow_flex_l	elbow_flex_r	pro_sup_l	pro_sup_r	glut_med1_l/activation	glut_med2_l/activation	glut_med3_l/activation	glut_min1_l/activation	glut_min2_l/activation	glut_min3_l/activation	semimem_l/activation	semiten_l/activation	bifemlh_l/activation	bifemsh_l/activation	sar_l/activation	add_long_l/activation	add_brev_l/activation	add_mag1_l/activation	add_mag2_l/activation	add_mag3_l/activation	tfl_l/activation	pect_l/activation	grac_l/activation	glut_max1_l/activation	glut_max2_l/activation	glut_max3_l/activation	iliacus_l/activation	psoas_l/activation	quad_fem_l/activation	gem_l/activation	peri_l/activation	rect_fem_l/activation	vas_med_l/activation	vas_int_l/activation	vas_lat_l/activation	med_gas_l/activation	lat_gas_l/activation	soleus_l/activation	tib_post_l/activation	flex_dig_l/activation	flex_hal_l/activation	tib_ant_l/activation	per_brev_l/activation	per_long_l/activation	per_tert_l/activation	ext_dig_l/activation	ext_hal_l/activation	ercspn_l/activation	intobl_l/activation	extobl_l/activation	glut_med1_r/activation	glut_med2_r/activation	glut_med3_r/activation	glut_min1_r/activation	glut_min2_r/activation	glut_min3_r/activation	semimem_r/activation	semiten_r/activation	bifemlh_r/activation	bifemsh_r/activation	sar_r/activation	add_long_r/activation	add_brev_r/activation	add_mag1_r/activation	add_mag2_r/activation	add_mag3_r/activation	tfl_r/activation	pect_r/activation	grac_r/activation	glut_max1_r/activation	glut_max2_r/activation	glut_max3_r/activation	iliacus_r/activation	psoas_r/activation	quad_fem_r/activation	gem_r/activation	peri_r/activation	rect_fem_r/activation	vas_med_r/activation	vas_int_r/activation	vas_lat_r/activation	med_gas_r/activation	lat_gas_r/activation	soleus_r/activation	tib_post_r/activation	flex_dig_r/activation	flex_hal_r/activation	tib_ant_r/activation	per_brev_r/activation	per_long_r/activation	per_tert_r/activation	ext_dig_r/activation	ext_hal_r/activation	ercspn_r/activation	intobl_r/activation	extobl_r/activation	
          1.08028686	         -2.91468460	         -1.57966645	          6.06182758	          1.35035857	          0.85619068	         -0.00243728	        -18.30071854	         -1.53552694	          8.59489641	         31.78213896	          2.56428739	         -2.75528526	        -10.31194850	        -19.27644442	         -1.71139628	         -0.90277576	         12.37067258	         -2.16048847	         -5.25994342	         -0.08428327	         28.52707907	          0.52943322	         -1.16238770	          0.04408444	         -1.83875923	          3.95699640	        -13.49010633	         14.90478401	         -9.74126665	        -13.67201910	          5.85433920	         37.73986864	         19.20853154	         86.51662706	         86.51662706	          0.24767030	          0.08216190	          0.05000015	          0.27928409	          0.17679384	          0.08279280	          0.05000312	          0.05000040	          0.05000031	          0.06805845	          0.08369688	          0.16538487	          0.07883585	          0.05000346	          0.05000364	          0.05000109	          0.26555602	          0.10072265	          0.05000168	          0.05000411	          0.05000271	          0.05000206	          0.32208837	          0.54199224	          0.05000036	          0.05000092	          0.05000017	          0.19542002	          0.14941208	          0.09941687	          0.07620646	          0.26844893	          0.34761405	          0.22153368	          0.19298120	          0.19193934	          0.25876059	          0.05000004	          0.10326589	          0.16804667	          0.05000026	          0.05000011	          0.05000025	          0.05000003	          0.05000023	          0.05000041	          0.05000180	          0.05000093	          0.05000551	          0.05000099	          0.05000114	          0.05000206	          0.05900204	          0.05894252	          0.20234314	          0.05000067	          0.05000199	          0.11026987	          0.16576185	          0.13680297	          0.16552150	          0.12811988	          0.05000135	          0.05885393	          0.05900215	          0.07870945	          0.06052472	          0.13290436	          0.05900157	          0.05900243	          0.27145555	          0.05181823	          0.05000226	          0.05000389	          0.16922926	          0.17074226	          0.14273683	          0.05900249	          0.05900250	          0.05900239	          0.05000004	          0.05000088	          0.05000234	          0.47780631	          0.27041735	          0.15522853	          0.40129480	          0.59285450	          0.05000023	          0.05000012	          0.09814973	          0.09695530	
          1.09108973	         -2.89844230	         -1.69696721	          6.31061111	          1.36719995	          0.85505069	         -0.00223194	        -17.94073703	         -1.83840207	          8.37671517	         31.12382395	          3.01710582	         -2.50004651	        -12.56154470	        -19.24197689	         -2.76884224	         -1.31750092	         13.40909922	         -2.84216549	         -5.74008193	         -0.10557523	         29.26509704	          0.67834812	         -0.92950971	          0.30949831	         -1.90976120	          3.61797112	        -13.53079462	         15.22026800	        -10.79240195	        -13.67183050	          5.65592628	         38.77711732	         19.09217602	         86.51662706	         86.51662706	          0.20988168	          0.06962597	          0.05000041	          0.23667205	          0.14981932	          0.07016065	          0.05000482	          0.05000031	          0.05000042	          0.05767438	          0.07092700	          0.23157613	          0.24749355	          0.18681594	          0.05008816	          0.12512168	          0.22503878	          0.09696097	          0.05000115	          0.05000221	          0.05000148	          0.05000153	          0.27294524	          0.47319313	          0.05000036	          0.05000776	          0.05900258	          0.16560351	          0.12662149	          0.13500875	          0.13211990	          0.22748988	          0.29457626	          0.18773280	          0.16353682	          0.16265408	          0.21927990	          0.10917337	          0.08751020	          0.14240686	          0.05000036	          0.13569469	          0.05000148	          0.05527197	          0.06962564	          0.05652231	          0.05000011	          0.05000036	          0.09034334	          0.05000019	          0.05000028	          0.05000041	          0.05000008	          0.05000015	          0.17147046	          0.05000026	          0.05000280	          0.09344567	          0.14047085	          0.36390943	          0.27619624	          0.13057492	          0.05000043	          0.05000318	          0.05000131	          0.10306926	          0.05900401	          0.15257863	          0.05000017	          0.05000075	          0.51359659	          0.08434505	          0.06438672	          0.06962558	          0.26746867	          0.26095249	          0.22207811	          0.05000009	          0.05000011	          0.05000001	          0.05000043	          0.05900086	          0.05000073	          0.62043110	          0.22915802	          0.13154430	          0.50885566	          0.62235900	          0.12279912	          0.05000001	          0.08317438	          0.08216219	
          1.10189260	         -2.87785727	         -1.82374956	          6.53212151	          1.38421628	          0.85372456	         -0.00204843	        -17.47441910	         -2.12718594	          8.15109733	         30.29636565	          3.42587639	         -2.15843042	        -15.01166966	        -19.65828196	         -3.83742897	         -1.50972631	         14.37040306	         -3.58769235	         -6.07674503	         -0.28011351	         29.33953081	          0.79672056	         -0.68447883	          0.59042254	         -1.96724186	          3.22070192	        -13.57745763	         15.47762959	        -11.81826316	        -13.68403003	          5.55831842	         39.80578772	         18.93198765	         86.51662706	         86.51662706	          0.24293898	          0.05900276	          0.05000035	          0.20056169	          0.12696051	          0.05945588	          0.05000414	          0.05000206	          0.05000832	          0.05000013	          0.06010553	          0.19974370	          0.33590455	          0.15831271	          0.05905381	          0.10603202	          0.22964813	          0.08217245	          0.05865159	          0.05008573	          0.05359373	          0.05900251	          0.23130022	          0.42923865	          0.05900210	          0.05000287	          0.05000028	          0.14033628	          0.10730208	          0.11440963	          0.11196154	          0.19278023	          0.24963081	          0.15908915	          0.13858498	          0.13783708	          0.18582307	          0.20861963	          0.13214695	          0.14698323	          0.29910419	          0.23602501	          0.13045277	          0.08621936	          0.05900241	          0.05000019	          0.32435971	          0.34253363	          0.43962648	          0.18774372	          0.05000154	          0.39626819	          0.08747590	          0.09693512	          0.15423082	          0.05000014	          0.05000048	          0.07920228	          0.23532754	          0.30838562	          0.23408196	          0.17380332	          0.05000036	          0.06961929	          0.11791423	          0.22208509	          0.05000145	          0.17027605	          0.05900159	          0.05000073	          0.43523377	          0.07147614	          0.24181999	          0.05900236	          0.27539851	          0.27994649	          0.23669371	          0.05900239	          0.05900239	          0.05900239	          0.05000010	          0.05000037	          0.05000219	          0.58322330	          0.19419389	          0.11147373	          0.43121653	          0.59064198	          0.10406289	          0.05004371	          0.07048427	          0.06962616	
          1.11269546	         -2.85614869	         -1.95473529	          6.72253369	          1.40113577	          0.85233222	         -0.00185612	        -16.86563281	         -2.39512353	          7.92966808	         29.33319183	          3.81487227	         -1.80064200	        -17.69474627	        -20.03978436	         -4.83516906	         -1.42563556	         15.22237370	         -4.36909730	         -6.07367044	         -0.46713768	         28.25015064	          0.94041891	         -0.45102516	          0.87599668	         -2.01298796	          2.81761574	        -13.62692637	         15.69801143	        -12.75272326	        -13.70160801	          5.58223953	         40.77684757	         18.68277901	         86.51662706	         86.51662706	          0.20587233	          0.05000057	          0.05000012	          0.17004446	          0.10758949	          0.05038453	          0.05020531	          0.05000047	          0.05000050	          0.05000051	          0.05900239	          0.19384700	          0.28465351	          0.13415809	          0.05004404	          0.08985435	          0.27465883	          0.06963555	          0.05000086	          0.05000197	          0.05000123	          0.05000097	          0.19600930	          0.39399159	          0.05000016	          0.05000084	          0.05000039	          0.11892426	          0.09093036	          0.09695345	          0.09487888	          0.16336647	          0.21154300	          0.13481586	          0.11744496	          0.11680680	          0.15747189	          0.18762720	          0.11198558	          0.12455775	          0.25346808	          0.23589213	          0.11054889	          0.12401693	          0.05000003	          0.05000006	          0.41528055	          0.50628831	          0.58502083	          0.32902581	          0.38258056	          0.39110122	          0.07412924	          0.10545239	          0.13069883	          0.06962505	          0.05000093	          0.06711791	          0.19942208	          0.26133337	          0.19836736	          0.17331059	          0.05000039	          0.05899743	          0.09992379	          0.33498573	          0.22229515	          0.17724561	          0.05000008	          0.05000009	          0.36882733	          0.06057219	          0.20492507	          0.05000005	          0.34586601	          0.35591398	          0.29933756	          0.05000003	          0.05000007	          0.05000001	          0.12683927	          0.05040950	          0.05000094	          0.70802275	          0.16456446	          0.09446546	          0.39224961	          0.59656397	          0.38361537	          0.07056755	          0.06962555	          0.05900284	
